<svg xmlns="http://www.w3.org/2000/svg" data-name="Layer 1" viewBox="0 0 64 64" x="0px" y="0px"><title>1</title><path d="M41.59,41.57a13.57,13.57,0,1,0-19.18,0A13.59,13.59,0,0,0,41.59,41.57Z"></path><path d="M33.75,13.47a18.59,18.59,0,0,1-1.26,37.09A1.44,1.44,0,0,0,31.09,52a1.42,1.42,0,0,0,1.44,1.39h0A21.45,21.45,0,0,0,34,10.62l-.26,0A1.48,1.48,0,0,0,32.3,12a1.38,1.38,0,0,0,1.3,1.43Z"></path><path d="M32,58.7A26.72,26.72,0,0,0,33.79,5.31a1.43,1.43,0,0,0-.11,2.86A23.86,23.86,0,1,1,15.12,48.85a1.44,1.44,0,0,0-2,0,1.46,1.46,0,0,0,0,2A26.59,26.59,0,0,0,32,58.7Z"></path><path d="M54.64,9.33A32,32,0,0,0,33.77,0a1.4,1.4,0,0,0-1.42,1.35,1.44,1.44,0,0,0,1.34,1.52A29.16,29.16,0,1,1,2.87,33.21a1.46,1.46,0,0,0-1.5-1.37h0a1.44,1.44,0,0,0-1,.46,1.47,1.47,0,0,0-.38,1,32,32,0,1,0,54.64-24Z"></path></svg>