<svg xmlns="http://www.w3.org/2000/svg" viewBox="0 0 116.33 116.38"><title>&#x8D44;&#x6E90; 15</title><path d="M115.57 68.41c-.57 2.24-1.1 4.39-1.7 6.51-.07.21-.61.4-.93.41h-6.29a25 25 0 0 0-9.51 1.9 16 16 0 0 1-12.77.34c-5.87-2.32-12-2.57-18.16-2.48-2.74 0-5.48.2-8.22.2H3.82c-1 0-1.44-.27-1.64-1.25-.39-1.88-.89-3.73-1.38-5.73.52 0 .86-.06 1.2-.06h57.86a32.89 32.89 0 0 1 11.75 1.87 20 20 0 0 0 12.53.34 56.85 56.85 0 0 1 13.36-1.85c5.67-.15 11.34-.19 17-.28.29 0 .57.04 1.07.08zM17.83 54.65h16.05c4.45 0 8.9-.19 13.34-.16a27.33 27.33 0 0 1 10.59 1.94 17.65 17.65 0 0 0 13 .58c4.34-1.44 8.89-1.72 13.42-2.09 8.5-.68 17-.46 25.52-.35 1.9 0 3.8.08 5.7.08.61 0 .88.2.88.82v5.22c0 .74-.28 1-1 1-3.19-.17-6.37-.38-9.56-.4-4.48 0-9-.06-13.42.27a25.1 25.1 0 0 0-7.39 1.72 19 19 0 0 1-13.43.72 51.94 51.94 0 0 0-11.88-1.9c-9.43-.81-18.86-1-28.31-.86-10 .1-19.92.29-29.88.43C0 61.67 0 61.65 0 60.23v-4.45c0-.85.28-1.15 1.18-1.14h16.64zM115.57 48H81.09a29.17 29.17 0 0 0-10 1.77 20.69 20.69 0 0 1-12.71.48A90.84 90.84 0 0 0 43.69 48c-8.79-.77-17.58-.49-26.38-.37-5.06.07-10.11.25-15.17.38H.77c.6-2.32 1.13-4.47 1.74-6.59.06-.21.61-.39.93-.4h32.31a24.06 24.06 0 0 1 9.49 2c2.48 1.07 5 1.91 7.77 1.48a46.21 46.21 0 0 0 6-1.55A47 47 0 0 1 72.6 41h40.23c.49 0 1 0 1.13.61.51 2.01 1.04 4.06 1.61 6.39zM111.06 34.3H67.48a42.38 42.38 0 0 0-10.71 1.88 30.24 30.24 0 0 1-11.33.58c-4.7-.52-9.36-1.42-14.06-1.89-4.16-.41-8.36-.54-12.54-.64s-8.19 0-12.28.06H5.27a3.72 3.72 0 0 1 .22-.79c1-1.88 2-3.77 3-5.61a1.44 1.44 0 0 1 1.07-.59c4.83 0 9.67 0 14.5.05a23.26 23.26 0 0 1 8.17 2.14l2.69 1.08a9.47 9.47 0 0 0 6.89.13 28 28 0 0 0 3-1.14 24.12 24.12 0 0 1 10.4-2.19c10.93-.09 21.85-.2 32.78-.24 6.22 0 12.44.08 18.66.16a1.52 1.52 0 0 1 1.12.49c1.12 1.95 2.16 3.95 3.22 5.94a2.52 2.52 0 0 1 .07.58zM5.16 82H54.3c4.71 0 9.41-.16 14.11-.33A47.12 47.12 0 0 1 85 83.72a24.37 24.37 0 0 0 12.2.59c3.39-.6 6.83-.9 10.25-1.34l3.74-.5c-.17.5-.26.83-.38 1.16-1 2.59-2 5.18-2.9 7.78a1.62 1.62 0 0 1-1.31 1.09 12.37 12.37 0 0 1-8-.86 33.84 33.84 0 0 0-15.07-2.71c-7.22.16-14.44.08-21.66.08Q35.92 89 10 89a1.75 1.75 0 0 1-1.83-1c-.86-1.69-1.77-3.36-2.65-5a9.47 9.47 0 0 1-.36-1zM102.41 20.62h-44.3a83.73 83.73 0 0 0-9.63.51 55 55 0 0 0-6.74 1.62 22.1 22.1 0 0 1-8 .3c-6-.66-12-1.47-18-2.22-.56-.08-1.12-.19-1.68-.29l-.15-.28c1.29-.91 2.54-1.9 3.9-2.7a5.32 5.32 0 0 1 4.77-.56 10.76 10.76 0 0 0 6.75-.22 35.49 35.49 0 0 0 3.47-1.18 29.74 29.74 0 0 1 11.6-2.17q25.2.12 50.4.2A1.84 1.84 0 0 1 96 14c2.09 2 4.13 4.06 6.18 6.11a2.39 2.39 0 0 1 .23.51zM102.35 98.47c-2.19 1.38-4.27 2.7-6.39 4a2.36 2.36 0 0 1-1.19.24c-8.32 0-16.63-.08-25-.07q-24 0-47.95.09a2.75 2.75 0 0 1-2.15-.83c-1.95-1.95-3.93-3.88-5.9-5.81l.15-.34h55.19c6.73 0 13.48-.17 20.2.08 3 .11 6.06 1 9.08 1.67 1.34.25 2.61.64 3.96.97zM30.85 8.18c1.81-1.18 3.56-2.5 5.45-3.54A38.11 38.11 0 0 1 50.46.44a59.35 59.35 0 0 1 31.33 4.63c1.12.49 2.22 1 3.32 1.55a2.22 2.22 0 0 1 .32.34h-1.17l-36.45-.09c-5.63 0-11.25.19-16.74 1.69zM31.11 109.45h54.15a56.35 56.35 0 0 1-54.15 0z" fill="#000000"/></svg>